# xmcd
#
# Track frame offsets:
#	150
#	12495
#	25777
#	38402
#	51000
#	62037
#	73040
#	85675
#	95300
#	110512
#	123872
#	138605
#	151797
#	164800
#	176325
#
# Disc length: 2578 seconds
#
# Revision: 1
# Processed by: cddbd v1.4PL0 Copyright (c) Steve Scherf et al.
# Submitted via: audiograbber 1.81.02
#
DISCID=bb0a100f
DTITLE=Various Artist - Treasury Of The West Volume 2 Disc 1
DYEAR=1998
DGENRE=Country
TTITLE0=Hugo Montenegro - For A Few Dollars More
TTITLE1=Gene Pitney - The Man Who Shot Liberty Valance
TTITLE2=Marty Robbins - Streets Of Laredo
TTITLE3=Tex Ritter - Jingle Jangle Jingle
TTITLE4=Frank Devol - Hopalong Cassidy March
TTITLE5=Bill Hayes - The Ballad Of Davy Crockett
TTITLE6=Jimmy Wakely - Take Me Back To My Boots And Saddle
TTITLE7=Sons Of The Pioneers - Along The Navajo Trail
TTITLE8=Jerome Moross - The Big Country
TTITLE9=Willie Nelson - Remember The Alamo
TTITLE10=Tex Ritter - Rye Whiskey
TTITLE11=Gene Autry - South Of The Border (Down Mexico Way)
TTITLE12=Sons Of The Pioneers - O Bury Me Not On The Lone Prairie
TTITLE13=Slim Whitman - Down In The Valley
TTITLE14=Al Caiola - Wagons Ho!
EXTD=
EXTT0=
EXTT1=
EXTT2=
EXTT3=
EXTT4=
EXTT5=
EXTT6=
EXTT7=
EXTT8=
EXTT9=
EXTT10=
EXTT11=
EXTT12=
EXTT13=
EXTT14=
PLAYORDER=
